# xmcd CD database file
#
# Track frame offsets:
#	150
#	13462
#	28215
#	39415
#	50437
#	64737
#	73107
#	82252
#	93160
#	107695
#	114720
#	123160
#	130937
#	140512
#	151895
#	159917
#	172465
#	184690
#	194252
#	202780
#	212147
#	222555
#	230800
#	243560
#	251862
#
# Disc length: 3484 seconds
#
# Revision: 2
# Processed by: cddbd v1.5.1PL2 Copyright (c) Steve Scherf et al.
# Submitted via: CDex 1.51
#
DISCID=7d0d9a19
DTITLE=Julie London - Julie Is Her Name ( Vol.1&2 )
DYEAR=1955
DGENRE=Jazz
TTITLE0=Cry Me A River
TTITLE1=I Should Care
TTITLE2=I'M In The Mood For Love
TTITLE3=I'm Glad There Is You
TTITLE4=Can't Help Lovin' That Man
TTITLE5=I Love You
TTITLE6=Say It Isn't So
TTITLE7=It Never Entered My Mind
TTITLE8=Easy Street
TTITLE9='S Wonderful
TTITLE10=No Moon At All
TTITLE11=Laura
TTITLE12=Gone With The Wind
TTITLE13=Blue Moon
TTITLE14=What Is This Thing Called Love
TTITLE15=How Long Has This Been Going On
TTITLE16=Too Good To Be True
TTITLE17=Spring Is Here
TTITLE18=Goody Goody
TTITLE19=The One I Love Belongs To Somebody Else
TTITLE20=If I'm Lucky
TTITLE21=Hot Today
TTITLE22=Little White Lies
TTITLE23=I Guess I'll Have To Change My 
TTITLE24=I Got Lost In His Arms
EXTD=YEAR: 1955
EXTT0=
EXTT1=
EXTT2=
EXTT3=
EXTT4=
EXTT5=
EXTT6=
EXTT7=
EXTT8=
EXTT9=
EXTT10=
EXTT11=
EXTT12=
EXTT13=
EXTT14=
EXTT15=
EXTT16=
EXTT17=
EXTT18=
EXTT19=
EXTT20=
EXTT21=
EXTT22=
EXTT23=
EXTT24=
PLAYORDER=
